{"title":"Stunning Performance Fail.. Because of Beauty.. - Shrivastava -","uid":8214254,"size":1684920,"categoryP":"audio","categoryS":"other","magnet":"?xt=urn:btih:014ae570d15e7a59eb799b2a6ee32aa0a61f1e06&amp;dn=Stunning+Performance+Fail..+Because+of+Beauty..+-+Shrivastava+-+&amp;tr=udp%3A%2F%2Ftracker.openbittorrent.com%3A80&amp;tr=udp%3A%2F%2Fopen.demonii.com%3A1337&amp;tr=udp%3A%2F%2Ftracker.coppersurfer.tk%3A6969&amp;tr=udp%3A%2F%2Fexodus.desync.com%3A6969","seeders":1,"leechers":0,"uploader":"navi555","files":9,"time":1362309205,"description":"[img]http://img132.imageshack.us/img132/1273/ibrg.jpg[/img]\n\n\nComplete name : Stunning Performance Fail.. Because of Beauty.. - Shrivastava - IBRG.mp4\nFormat : MPEG-4\nFormat profile :\nCodec ID : FACE\nFile size : 1.61 MiB\nDuration : 39s 613ms\nOverall bit rate : 340 Kbps\nEncoded date : UTC 2013-03-02 14:21:49\nTagged date : UTC 2013-03-02 14:21:49\n\nVideo\nID : 1\nFormat : AVC\nFormat/Info : Advanced Video Codec\nFormat profile : &lt;a class=&quot;__cf_email__&quot; href=&quot;/cdn-cgi/l/email-protection&quot; data-cfemail=&quot;e6a48795838a8f8883a6aad7c8d5&quot;&gt;[email&amp;#160;protected]&lt;/a&gt;&lt;script cf-hash='f9e31' type=&quot;text/javascript&quot;&gt;\n/* &lt;![CDATA[ */!function(){try{var t=&quot;currentScript&quot;in document?document.currentScript:function(){for(var t=document.getElementsByTagName(&quot;script&quot;),e=t.length;e--;)if(t[e].getAttribute(&quot;cf-hash&quot;))return t[e]}();if(t&amp;&amp;t.previousSibling){var e,r,n,i,c=t.previousSibling,a=c.getAttribute(&quot;data-cfemail&quot;);if(a){for(e=&quot;&quot;,r=parseInt(a.substr(0,2),16),n=2;a.length-n;n+=2)i=parseInt(a.substr(n,2),16)^r,e+=String.fromCharCode(i);e=document.createTextNode(e),c.parentNode.replaceChild(e,c)}}}catch(u){}}();/* ]]&gt; */&lt;/script&gt;\nFormat settings, CABAC : No\nFormat settings, ReFrames : 3 frames\nCodec ID : avc1\nCodec ID/Info : Advanced Video Coding\nDuration : 39s 400ms\nBit rate mode : Variable\nBit rate : 246 Kbps\nMaximum bit rate : 428 Kbps\nWidth : 400 pixels\nHeight : 224 pixels\nDisplay aspect ratio : 16:9\nFrame rate mode : Constant\nFrame rate : 25.000 fps\nColor space : YUV\nChroma subsampling : 4:2:0\nBit depth : 8 bits\nScan type : Progressive\nBits/(Pixel*Frame) : 0.110\nStream size : 1.15 MiB (72%)\nWriting library : x264 core 116\n\n\nAudio\nID : 2\nFormat : AAC\nFormat/Info : Advanced Audio Codec\nFormat profile : LC\nCodec ID : 40\nDuration : 39s 613ms\nBit rate mode : Variable\nBit rate : 93.3 Kbps\nMaximum bit rate : 107 Kbps\nChannel(s) : 2 channels\nChannel positions : Front: L R\nSampling rate : 44.1 KHz\nCompression mode : Lossy\nStream size : 451 KiB (27%)\n","torrent":{"xt":"urn:btih:014ae570d15e7a59eb799b2a6ee32aa0a61f1e06","amp;dn":"Stunning+Performance+Fail..+Because+of+Beauty..+-+Shrivastava+-+","amp;tr":["udp%3A%2F%2Ftracker.openbittorrent.com%3A80","udp%3A%2F%2Fopen.demonii.com%3A1337","udp%3A%2F%2Ftracker.coppersurfer.tk%3A6969","udp%3A%2F%2Fexodus.desync.com%3A6969"],"infoHash":"014ae570d15e7a59eb799b2a6ee32aa0a61f1e06","infoHashBuffer":{"type":"Buffer","data":[1,74,229,112,209,94,122,89,235,121,155,42,110,227,42,160,166,31,30,6]},"announce":[],"urlList":[]}}